<svg width="222" height="52" viewBox="0 0 222 52" fill="none" xmlns="http://www.w3.org/2000/svg">
<g clip-path="url(#clip0_0_1)">
<path d="M31.1547 29.6453C30.6846 31.9678 27.8248 40.6775 26.4537 44.742C18.2268 45.3227 11.7629 41.2581 11.1753 40.0968C10.5876 38.9355 10 37.7743 10 34.871C10.5876 31.9678 12.3505 33.1291 12.9382 33.1291C13.5258 33.1291 14.701 36.613 17.0516 38.9356C19.4021 41.2581 20.5774 38.9356 22.9279 35.4517C25.2784 33.1291 35.2681 4.67764 35.8558 3.5162C36.4434 2.35475 37.031 3.5162 37.031 3.5162C40.9486 15.1291 49.2537 38.0065 51.1342 36.613C56.3053 27.7872 59.1651 19.0001 59.9486 15.7098C56.6579 22.213 53.8764 23.0646 52.8971 22.6775C52.7012 21.7098 52.8971 18.9614 55.2476 15.7098C57.5981 12.4581 61.7115 9.70976 63.4744 8.74202C64.062 7.96783 64.6497 9.67105 62.2991 22.6775C59.9486 35.684 53.8764 42.8065 51.1342 44.742C51.1342 44.742 50.546 45.3225 48.7836 44.742C45.2579 43.5807 42.3197 36.0323 41.1444 32.5485C38.3238 29.7614 33.3094 29.4517 31.1547 29.6453Z" fill="white" stroke="white" stroke-width="0.05"/>
<path d="M39.7678 30.7932L32.0483 23.918C32.0189 23.8918 32.0076 23.8509 32.0194 23.8133L35.6218 12.3547C35.6525 12.2572 35.7924 12.263 35.8148 12.3628L39.9319 30.6966C39.9532 30.7914 39.8404 30.8578 39.7678 30.7932Z" fill="black" stroke="black" stroke-width="0.05"/>
<path d="M72.874 23.181C74.5947 23.181 75.9577 23.7127 76.963 24.776C77.9877 25.82 78.5 27.2217 78.5 28.981V38H77.021V28.981C77.021 27.6277 76.644 26.5547 75.89 25.762C75.1553 24.9693 74.1113 24.573 72.758 24.573C71.2693 24.573 70.0513 25.066 69.104 26.052C68.1567 27.038 67.683 28.4687 67.683 30.344V38H66.233V17.7H67.683V26.255C68.727 24.2057 70.4573 23.181 72.874 23.181ZM89.1271 23.181C91.2538 23.181 92.9745 23.935 94.2891 25.443C95.6231 26.951 96.2901 28.7393 96.2901 30.808C96.2901 30.8853 96.2805 31.0013 96.2611 31.156C96.2611 31.3107 96.2611 31.4267 96.2611 31.504H83.1241C83.2981 33.128 83.9458 34.4427 85.0671 35.448C86.2078 36.434 87.6095 36.927 89.2721 36.927C90.4321 36.927 91.4471 36.6853 92.3171 36.202C93.1871 35.7187 93.8445 35.0807 94.2891 34.288L95.5651 35.042C94.9658 36.0473 94.1151 36.8497 93.0131 37.449C91.9111 38.029 90.6545 38.319 89.2431 38.319C87.0198 38.319 85.1928 37.6133 83.7621 36.202C82.3315 34.7713 81.6161 32.954 81.6161 30.75C81.6161 28.5847 82.3121 26.7867 83.7041 25.356C85.1155 23.906 86.9231 23.181 89.1271 23.181ZM89.1271 24.573C87.4838 24.573 86.1111 25.0853 85.0091 26.11C83.9071 27.1347 83.2788 28.459 83.1241 30.083H94.7821C94.6275 28.3623 94.0088 27.0187 92.9261 26.052C91.8628 25.066 90.5965 24.573 89.1271 24.573ZM99.6793 38V16.83H101.129V38H99.6793ZM107.135 19.672C106.903 19.8847 106.633 19.991 106.323 19.991C106.014 19.991 105.743 19.8847 105.511 19.672C105.279 19.44 105.163 19.1597 105.163 18.831C105.163 18.5217 105.279 18.2607 105.511 18.048C105.743 17.816 106.014 17.7 106.323 17.7C106.633 17.7 106.903 17.816 107.135 18.048C107.367 18.2607 107.483 18.5217 107.483 18.831C107.483 19.1597 107.367 19.44 107.135 19.672ZM105.598 38V23.5H107.048V38H105.598ZM122.16 23.5H123.697L117.578 38H115.809L109.661 23.5H111.227L116.679 36.492L122.16 23.5ZM132.287 23.181C134.414 23.181 136.135 23.935 137.449 25.443C138.783 26.951 139.45 28.7393 139.45 30.808C139.45 30.8853 139.441 31.0013 139.421 31.156C139.421 31.3107 139.421 31.4267 139.421 31.504H126.284C126.458 33.128 127.106 34.4427 128.227 35.448C129.368 36.434 130.77 36.927 132.432 36.927C133.592 36.927 134.607 36.6853 135.477 36.202C136.347 35.7187 137.005 35.0807 137.449 34.288L138.725 35.042C138.126 36.0473 137.275 36.8497 136.173 37.449C135.071 38.029 133.815 38.319 132.403 38.319C130.18 38.319 128.353 37.6133 126.922 36.202C125.492 34.7713 124.776 32.954 124.776 30.75C124.776 28.5847 125.472 26.7867 126.864 25.356C128.276 23.906 130.083 23.181 132.287 23.181ZM132.287 24.573C130.644 24.573 129.271 25.0853 128.169 26.11C127.067 27.1347 126.439 28.459 126.284 30.083H137.942C137.788 28.3623 137.169 27.0187 136.086 26.052C135.023 25.066 133.757 24.573 132.287 24.573ZM149.48 23.181C151.201 23.181 152.564 23.7127 153.569 24.776C154.594 25.82 155.106 27.2217 155.106 28.981V38H153.627V28.981C153.627 27.6277 153.25 26.5547 152.496 25.762C151.762 24.9693 150.718 24.573 149.364 24.573C147.876 24.573 146.658 25.066 145.71 26.052C144.763 27.038 144.289 28.4687 144.289 30.344V38H142.839V23.5H144.289V26.255C145.333 24.2057 147.064 23.181 149.48 23.181ZM166.633 24.921H162.312V34.346C162.312 35.1773 162.466 35.7767 162.776 36.144C163.085 36.5113 163.559 36.724 164.197 36.782C164.835 36.8207 165.647 36.7917 166.633 36.695V38C164.68 38.29 163.22 38.1547 162.254 37.594C161.306 37.0333 160.833 35.9507 160.833 34.346V24.921H157.643V23.5H160.833V19.875L162.312 19.44V23.5H166.633V24.921ZM180.552 23.5H182.002V38H180.552V35.245C179.508 37.2943 177.778 38.319 175.361 38.319C173.64 38.319 172.268 37.797 171.243 36.753C170.238 35.6897 169.735 34.2783 169.735 32.519V23.5H171.214V32.519C171.214 33.8723 171.581 34.9453 172.316 35.738C173.07 36.5307 174.124 36.927 175.477 36.927C176.966 36.927 178.184 36.434 179.131 35.448C180.078 34.462 180.552 33.0313 180.552 31.156V23.5ZM187.931 26.342C188.801 24.312 190.415 23.297 192.774 23.297V24.689C191.401 24.689 190.251 25.1337 189.323 26.023C188.395 26.893 187.931 28.198 187.931 29.938V38H186.481V23.5H187.931V26.342ZM201.361 23.181C203.487 23.181 205.208 23.935 206.523 25.443C207.857 26.951 208.524 28.7393 208.524 30.808C208.524 30.8853 208.514 31.0013 208.495 31.156C208.495 31.3107 208.495 31.4267 208.495 31.504H195.358C195.532 33.128 196.179 34.4427 197.301 35.448C198.441 36.434 199.843 36.927 201.506 36.927C202.666 36.927 203.681 36.6853 204.551 36.202C205.421 35.7187 206.078 35.0807 206.523 34.288L207.799 35.042C207.199 36.0473 206.349 36.8497 205.247 37.449C204.145 38.029 202.888 38.319 201.477 38.319C199.253 38.319 197.426 37.6133 195.996 36.202C194.565 34.7713 193.85 32.954 193.85 30.75C193.85 28.5847 194.546 26.7867 195.938 25.356C197.349 23.906 199.157 23.181 201.361 23.181ZM201.361 24.573C199.717 24.573 198.345 25.0853 197.243 26.11C196.141 27.1347 195.512 28.459 195.358 30.083H207.016C206.861 28.3623 206.242 27.0187 205.16 26.052C204.096 25.066 202.83 24.573 201.361 24.573Z" fill="white"/>
</g>
<defs>
<clipPath id="clip0_0_1">
<rect width="222" height="52" fill="white"/>
</clipPath>
</defs>
</svg>
